<svg width="201" height="69" viewBox="0 0 201 69" fill="none" xmlns="http://www.w3.org/2000/svg">
<path d="M39.5 0L48.3683 23.8389H77.0667L53.8492 38.5722L62.7175 62.4111L39.5 47.6778L16.2825 62.4111L25.1508 38.5722L1.93327 23.8389H30.6317L39.5 0Z" fill="url(#paint0_linear)"/>
<path d="M39.5 0L48.3683 23.8389H77.0667L53.8492 38.5722L62.7175 62.4111L39.5 47.6778L16.2825 62.4111L25.1508 38.5722L1.93327 23.8389H30.6317L39.5 0Z" fill="url(#paint1_linear)"/>
<path d="M39.5 5.02713L47.1014 25.4605H71.7001L51.7993 38.089L59.4007 58.5224L39.5 45.8938L19.5993 58.5224L27.2007 38.089L7.29997 25.4605H31.8986L39.5 5.02713Z" fill="url(#paint2_linear)"/>
<path d="M39.5 9.95572L45.8345 26.9835L66.3334 26.9835L49.7494 37.5073L56.0839 54.5351L39.5 44.0113L22.916 54.5351L29.2505 37.5073L12.6666 26.9835L33.1655 26.9835L39.5 9.95572Z" fill="url(#paint3_linear)"/>
<path d="M39.5 9.95572L45.8345 26.9835L66.3334 26.9835L49.7494 37.5073L56.0839 54.5351L39.5 44.0113L22.916 54.5351L29.2505 37.5073L12.6666 26.9835L33.1655 26.9835L39.5 9.95572Z" fill="url(#paint4_linear)"/>
<path d="M39.5 14.8843L44.5676 28.5065H60.9667L47.6996 36.9255L52.7672 50.5478L39.5 42.1288L26.2329 50.5478L31.3005 36.9255L18.0333 28.5065H34.4324L39.5 14.8843Z" fill="white"/>
<path d="M39.5 19.8129L43.3007 30.0295H55.6L45.6497 36.3438L49.4504 46.5605L39.5 40.2462L29.5496 46.5605L33.3503 36.3438L23.4 30.0295H35.6993L39.5 19.8129Z" fill="#800080"/>
<path d="M39.5 19.8129L43.3007 30.0295H55.6L45.6497 36.3438L49.4504 46.5605L39.5 40.2462L29.5496 46.5605L33.3503 36.3438L23.4 30.0295H35.6993L39.5 19.8129Z" fill="url(#paint5_linear)"/>
<path d="M39.5 24.7414L42.0338 31.5525H50.2333L43.5998 35.762L46.1336 42.5732L39.5 38.3637L32.8664 42.5732L35.4002 35.762L28.7666 31.5525H36.9662L39.5 24.7414Z" fill="white"/>
<path d="M39.5 29.67L40.7669 33.0756H44.8667L41.5499 35.1803L42.8168 38.5859L39.5 36.4811L36.1832 38.5859L37.4501 35.1803L34.1333 33.0756H38.2331L39.5 29.67Z" fill="#800080"/>
<path d="M39.5 29.67L40.7669 33.0756H44.8667L41.5499 35.1803L42.8168 38.5859L39.5 36.4811L36.1832 38.5859L37.4501 35.1803L34.1333 33.0756H38.2331L39.5 29.67Z" fill="url(#paint6_linear)"/>
<path d="M39.4436 33.3172L39.7603 34.1685H40.7853L39.956 34.6947L40.2728 35.5461L39.4436 35.0199L38.6144 35.5461L38.9311 34.6947L38.1019 34.1685H39.1268L39.4436 33.3172Z" fill="white"/>
<path d="M90.86 35.74C90.98 35.98 91.04 36.3067 91.04 36.72C91.04 37.2133 90.8667 37.6 90.52 37.88C90.1733 38.1467 89.6867 38.28 89.06 38.28C88.58 38.28 87.8333 38.2133 86.82 38.08L86.54 39.88C85.74 44.7733 85.34 47.5867 85.34 48.32C85.34 49.0533 85.4933 49.6133 85.8 50C85.2933 50.3467 84.78 50.52 84.26 50.52C83.78 50.52 83.4267 50.4 83.2 50.16C82.9733 49.92 82.86 49.5267 82.86 48.98C82.86 48.2867 82.98 47.0867 83.22 45.38C83.46 43.66 83.8533 41.1267 84.4 37.78C84.2667 37.7667 84.0733 37.76 83.82 37.76L80.6 38.24C80.4667 37.9867 80.4 37.66 80.4 37.26C80.4 36.6733 80.5667 36.2667 80.9 36.04C81.2333 35.8133 81.7333 35.7 82.4 35.7C82.9067 35.7 83.4333 35.74 83.98 35.82C84.54 35.9 84.8733 35.9467 84.98 35.96C86.1267 36.1467 87.0133 36.24 87.64 36.24L90.86 35.74ZM95.4786 50.5C94.5186 50.5 93.6719 50.2867 92.9386 49.86C92.2186 49.42 91.6586 48.8067 91.2586 48.02C90.8719 47.22 90.6786 46.2933 90.6786 45.24C90.6786 43.8267 90.9719 42.5733 91.5586 41.48C92.1586 40.3867 92.9919 39.5333 94.0586 38.92C95.1253 38.3067 96.3319 38 97.6786 38C98.2386 38 98.7519 38.0533 99.2186 38.16C99.3653 38.3733 99.4519 38.6867 99.4786 39.1C98.1453 39.1 97.0053 39.3667 96.0586 39.9C95.1119 40.4333 94.3919 41.18 93.8986 42.14C93.4053 43.0867 93.1586 44.1667 93.1586 45.38C93.1586 46.5667 93.3786 47.4933 93.8186 48.16C94.2586 48.8267 94.8853 49.16 95.6986 49.16C96.4853 49.16 97.1919 48.94 97.8186 48.5C98.4586 48.06 98.9786 47.4333 99.3786 46.62C99.7919 45.8067 100.052 44.86 100.159 43.78C99.6119 43.4333 99.2119 43.0533 98.9586 42.64C98.7186 42.2267 98.5986 41.74 98.5986 41.18C98.5986 40.6733 98.7519 40.2533 99.0586 39.92C99.3653 39.5733 99.7453 39.4 100.199 39.4C100.812 39.4 101.292 39.6733 101.639 40.22C101.985 40.7667 102.159 41.5267 102.159 42.5C102.159 43.9667 101.859 45.3133 101.259 46.54C100.672 47.7533 99.8653 48.72 98.8386 49.44C97.8253 50.1467 96.7053 50.5 95.4786 50.5ZM115.331 48.72C115.331 48.96 115.364 49.1933 115.431 49.42C115.511 49.6467 115.617 49.82 115.751 49.94C115.311 50.3133 114.811 50.5 114.251 50.5C113.411 50.5 112.991 49.9733 112.991 48.92C112.991 48.7067 113.024 48.2867 113.091 47.66L112.871 47.56C112.391 48.4933 111.784 49.22 111.051 49.74C110.331 50.2467 109.544 50.5 108.691 50.5C107.971 50.5 107.331 50.3067 106.771 49.92C106.224 49.5333 105.797 48.9867 105.491 48.28C105.197 47.56 105.051 46.7333 105.051 45.8C105.051 44.4533 105.391 43.2267 106.071 42.12C106.751 41 107.677 40.12 108.851 39.48C110.024 38.8267 111.317 38.5 112.731 38.5C113.344 38.5 113.931 38.5467 114.491 38.64L114.891 36.36L114.011 35.36C114.331 35.0933 114.704 34.8867 115.131 34.74C115.557 34.58 115.951 34.5 116.311 34.5C116.684 34.5 116.951 34.5867 117.111 34.76C117.271 34.92 117.351 35.2 117.351 35.6C117.351 35.8667 117.291 36.28 117.171 36.84C117.064 37.4 116.937 38.0133 116.791 38.68C116.351 40.6267 115.997 42.3867 115.731 43.96C115.464 45.52 115.331 47.1067 115.331 48.72ZM113.451 45.12C113.704 43.3333 113.997 41.5 114.331 39.62C112.944 39.6733 111.737 39.9667 110.711 40.5C109.684 41.0333 108.891 41.7533 108.331 42.66C107.784 43.5667 107.511 44.5933 107.511 45.74C107.511 46.6467 107.697 47.3533 108.071 47.86C108.444 48.3667 108.971 48.62 109.651 48.62C110.384 48.62 111.104 48.2933 111.811 47.64C112.517 46.9867 113.064 46.1067 113.451 45V45.12ZM124.912 50.5C123.952 50.5 123.106 50.2867 122.372 49.86C121.652 49.42 121.092 48.8067 120.692 48.02C120.306 47.22 120.112 46.2933 120.112 45.24C120.112 43.8267 120.406 42.5733 120.992 41.48C121.592 40.3867 122.426 39.5333 123.492 38.92C124.559 38.3067 125.766 38 127.112 38C127.672 38 128.186 38.0533 128.652 38.16C128.799 38.3733 128.886 38.6867 128.912 39.1C127.579 39.1 126.439 39.3667 125.492 39.9C124.546 40.4333 123.826 41.18 123.332 42.14C122.839 43.0867 122.592 44.1667 122.592 45.38C122.592 46.5667 122.812 47.4933 123.252 48.16C123.692 48.8267 124.319 49.16 125.132 49.16C125.919 49.16 126.626 48.94 127.252 48.5C127.892 48.06 128.412 47.4333 128.812 46.62C129.226 45.8067 129.486 44.86 129.592 43.78C129.046 43.4333 128.646 43.0533 128.392 42.64C128.152 42.2267 128.032 41.74 128.032 41.18C128.032 40.6733 128.186 40.2533 128.492 39.92C128.799 39.5733 129.179 39.4 129.632 39.4C130.246 39.4 130.726 39.6733 131.072 40.22C131.419 40.7667 131.592 41.5267 131.592 42.5C131.592 43.9667 131.292 45.3133 130.692 46.54C130.106 47.7533 129.299 48.72 128.272 49.44C127.259 50.1467 126.139 50.5 124.912 50.5ZM142.384 35.52C143.264 35.52 144.024 35.7267 144.664 36.14C145.304 36.5533 145.784 37.1 146.104 37.78C146.438 38.46 146.604 39.2 146.604 40C146.604 41.0533 146.384 42.0267 145.944 42.92C145.504 43.8133 144.838 44.5333 143.944 45.08C143.064 45.6267 141.971 45.9 140.664 45.9C139.664 45.9 138.758 45.7133 137.944 45.34C137.731 46.9 137.624 47.8667 137.624 48.24C137.624 49.0133 137.784 49.6 138.104 50C137.584 50.3467 137.071 50.52 136.564 50.52C136.071 50.52 135.711 50.3933 135.484 50.14C135.258 49.8867 135.144 49.4733 135.144 48.9C135.144 48.1267 135.251 46.9533 135.464 45.38C135.678 43.8067 136.084 41.1933 136.684 37.54L136.064 36.32C136.958 35.76 137.751 35.48 138.444 35.48C138.991 35.48 139.284 35.78 139.324 36.38C140.191 35.8067 141.211 35.52 142.384 35.52ZM139.824 44.36C140.691 44.36 141.444 44.1867 142.084 43.84C142.724 43.48 143.211 42.9933 143.544 42.38C143.891 41.7667 144.064 41.0667 144.064 40.28C144.064 39.36 143.824 38.6067 143.344 38.02C142.878 37.42 142.124 37.12 141.084 37.12C140.471 37.12 139.838 37.2933 139.184 37.64C138.944 39.08 138.784 40.0467 138.704 40.54L138.144 44.04C138.651 44.2533 139.211 44.36 139.824 44.36ZM150.092 50.5C149.265 50.5 148.852 49.9733 148.852 48.92C148.852 48.2667 149.065 46.5533 149.492 43.78C149.932 41.0067 150.352 38.5333 150.752 36.36L149.872 35.36C150.178 35.0933 150.545 34.8867 150.972 34.74C151.412 34.58 151.812 34.5 152.172 34.5C152.545 34.5 152.812 34.5867 152.972 34.76C153.132 34.92 153.212 35.2 153.212 35.6C153.212 35.8267 153.132 36.3267 152.972 37.1C152.812 37.86 152.712 38.3533 152.672 38.58C152.232 40.7267 151.872 42.6333 151.592 44.3C151.325 45.9533 151.192 47.4267 151.192 48.72C151.192 48.9733 151.225 49.2133 151.292 49.44C151.372 49.6533 151.472 49.82 151.592 49.94C151.178 50.3133 150.678 50.5 150.092 50.5ZM166.132 48.9C166.132 49.3667 166.252 49.7133 166.492 49.94C166.078 50.3133 165.632 50.5 165.152 50.5C164.698 50.5 164.352 50.36 164.112 50.08C163.872 49.8 163.752 49.3933 163.752 48.86C163.752 48.5667 163.798 48.1667 163.892 47.66L163.692 47.56C163.212 48.4933 162.605 49.22 161.872 49.74C161.152 50.2467 160.365 50.5 159.512 50.5C158.792 50.5 158.152 50.3067 157.592 49.92C157.045 49.5333 156.618 48.9867 156.312 48.28C156.018 47.56 155.872 46.7333 155.872 45.8C155.872 44.36 156.212 43.0467 156.892 41.86C157.572 40.66 158.498 39.72 159.672 39.04C160.845 38.3467 162.138 38 163.552 38C164.165 38 164.792 38.0533 165.432 38.16C165.525 38.32 165.598 38.5333 165.652 38.8C165.932 38.6 166.252 38.5 166.612 38.5C166.945 38.5 167.205 38.58 167.392 38.74C167.592 38.9 167.692 39.12 167.692 39.4C167.692 39.7067 167.645 40.0733 167.552 40.5C167.472 40.9267 167.332 41.5533 167.132 42.38C166.812 43.7267 166.565 44.8933 166.392 45.88C166.218 46.8667 166.132 47.8733 166.132 48.9ZM160.472 48.62C161.712 48.62 162.732 47.8333 163.532 46.26C164.332 44.6733 164.932 42.2867 165.332 39.1C163.892 39.14 162.638 39.46 161.572 40.06C160.518 40.6467 159.712 41.4333 159.152 42.42C158.605 43.4067 158.332 44.5133 158.332 45.74C158.332 46.6467 158.518 47.3533 158.892 47.86C159.265 48.3667 159.792 48.62 160.472 48.62ZM172.753 50.5C172.286 50.5 171.939 50.3867 171.713 50.16C171.499 49.9333 171.393 49.5733 171.393 49.08C171.393 48.4933 171.566 47.2867 171.913 45.46C172.273 43.62 172.679 41.8 173.133 40L172.233 39C172.553 38.72 172.926 38.4933 173.353 38.32C173.793 38.1467 174.186 38.06 174.533 38.06C174.933 38.06 175.213 38.14 175.373 38.3C175.533 38.46 175.613 38.7467 175.613 39.16C175.613 39.5067 175.553 39.9 175.433 40.34C175.326 40.78 175.179 41.1867 174.993 41.56L175.192 41.66C176.539 39.22 178.286 38 180.433 38C181.299 38 181.939 38.22 182.353 38.66C182.779 39.0867 182.993 39.7533 182.993 40.66C182.993 41.1933 182.933 41.7467 182.813 42.32C182.706 42.8933 182.546 43.6133 182.333 44.48C182.079 45.4933 181.893 46.3267 181.773 46.98C181.653 47.62 181.593 48.26 181.593 48.9C181.593 49.38 181.679 49.7267 181.853 49.94C181.453 50.3133 181.026 50.5 180.573 50.5C180.119 50.5 179.779 50.3867 179.553 50.16C179.339 49.9333 179.233 49.5733 179.233 49.08C179.233 48.5733 179.286 48.0067 179.393 47.38C179.513 46.74 179.679 45.9133 179.893 44.9C180.093 44.06 180.239 43.36 180.332 42.8C180.439 42.2267 180.493 41.7333 180.493 41.32C180.493 40.24 180.086 39.7 179.273 39.7C178.326 39.7 177.426 40.1533 176.573 41.06C175.733 41.9533 175.053 43.1133 174.533 44.54C174.026 45.9667 173.773 47.42 173.773 48.9C173.773 49.3933 173.853 49.74 174.013 49.94C173.613 50.3133 173.193 50.5 172.753 50.5Z" fill="#086375"/>
<defs>
<linearGradient id="paint0_linear" x1="84.214" y1="85.974" x2="4.8083" y2="-26.4119" gradientUnits="userSpaceOnUse">
<stop offset="0.9999" stop-color="#800080"/>
<stop offset="1" stop-color="white" stop-opacity="0"/>
</linearGradient>
<linearGradient id="paint1_linear" x1="15.6871" y1="6.01286" x2="56.6876" y2="70.3575" gradientUnits="userSpaceOnUse">
<stop stop-color="#1DD3B0"/>
<stop offset="1" stop-color="white" stop-opacity="0"/>
</linearGradient>
<linearGradient id="paint2_linear" x1="77.8263" y1="78.7191" x2="9.76427" y2="-17.6116" gradientUnits="userSpaceOnUse">
<stop offset="0.9999" stop-color="white"/>
<stop offset="1" stop-color="white" stop-opacity="0"/>
</linearGradient>
<linearGradient id="paint3_linear" x1="71.4386" y1="71.3657" x2="14.7202" y2="-8.9099" gradientUnits="userSpaceOnUse">
<stop offset="0.47588" stop-color="#800080"/>
<stop offset="1" stop-color="white" stop-opacity="0"/>
</linearGradient>
<linearGradient id="paint4_linear" x1="24.4561" y1="13.4265" x2="53.4403" y2="62.8825" gradientUnits="userSpaceOnUse">
<stop stop-color="#1DD3B0"/>
<stop offset="1" stop-color="white" stop-opacity="0"/>
</linearGradient>
<linearGradient id="paint5_linear" x1="29.23" y1="21.1929" x2="48.349" y2="52.7997" gradientUnits="userSpaceOnUse">
<stop stop-color="#1DD3B0"/>
<stop offset="1" stop-color="white" stop-opacity="0"/>
</linearGradient>
<linearGradient id="paint6_linear" x1="35.6628" y1="29.67" x2="43.5292" y2="42.2147" gradientUnits="userSpaceOnUse">
<stop stop-color="#1DD3B0"/>
<stop offset="1" stop-color="white" stop-opacity="0"/>
</linearGradient>
</defs>
</svg>
