<svg width="79" height="69" viewBox="0 0 79 69" fill="none" xmlns="http://www.w3.org/2000/svg">
<path d="M39.5 0L48.3683 23.8389H77.0667L53.8492 38.5722L62.7175 62.4111L39.5 47.6778L16.2825 62.4111L25.1508 38.5722L1.93327 23.8389H30.6317L39.5 0Z" fill="url(#paint0_linear)"/>
<path d="M39.5 0L48.3683 23.8389H77.0667L53.8492 38.5722L62.7175 62.4111L39.5 47.6778L16.2825 62.4111L25.1508 38.5722L1.93327 23.8389H30.6317L39.5 0Z" fill="url(#paint1_linear)"/>
<path d="M39.5 5.02713L47.1014 25.4605H71.7001L51.7993 38.089L59.4007 58.5224L39.5 45.8938L19.5993 58.5224L27.2007 38.089L7.29997 25.4605H31.8986L39.5 5.02713Z" fill="url(#paint2_linear)"/>
<path d="M39.5 9.95572L45.8345 26.9835L66.3333 26.9835L49.7494 37.5073L56.0839 54.5351L39.5 44.0113L22.916 54.5351L29.2505 37.5073L12.6666 26.9835L33.1655 26.9835L39.5 9.95572Z" fill="url(#paint3_linear)"/>
<path d="M39.5 9.95572L45.8345 26.9835L66.3333 26.9835L49.7494 37.5073L56.0839 54.5351L39.5 44.0113L22.916 54.5351L29.2505 37.5073L12.6666 26.9835L33.1655 26.9835L39.5 9.95572Z" fill="url(#paint4_linear)"/>
<path d="M39.5 14.8843L44.5676 28.5065H60.9667L47.6996 36.9255L52.7672 50.5478L39.5 42.1288L26.2329 50.5478L31.3005 36.9255L18.0333 28.5065H34.4324L39.5 14.8843Z" fill="white"/>
<path d="M39.5 19.8129L43.3007 30.0295H55.6L45.6497 36.3438L49.4504 46.5605L39.5 40.2462L29.5496 46.5605L33.3503 36.3438L23.4 30.0295H35.6993L39.5 19.8129Z" fill="#800080"/>
<path d="M39.5 19.8129L43.3007 30.0295H55.6L45.6497 36.3438L49.4504 46.5605L39.5 40.2462L29.5496 46.5605L33.3503 36.3438L23.4 30.0295H35.6993L39.5 19.8129Z" fill="url(#paint5_linear)"/>
<path d="M39.5 24.7414L42.0338 31.5525H50.2334L43.5998 35.762L46.1336 42.5732L39.5 38.3637L32.8664 42.5732L35.4002 35.762L28.7667 31.5525H36.9662L39.5 24.7414Z" fill="white"/>
<path d="M39.5 29.67L40.7669 33.0756H44.8666L41.5499 35.1803L42.8168 38.5859L39.5 36.4811L36.1832 38.5859L37.4501 35.1803L34.1333 33.0756H38.2331L39.5 29.67Z" fill="#800080"/>
<path d="M39.5 29.67L40.7669 33.0756H44.8666L41.5499 35.1803L42.8168 38.5859L39.5 36.4811L36.1832 38.5859L37.4501 35.1803L34.1333 33.0756H38.2331L39.5 29.67Z" fill="url(#paint6_linear)"/>
<path d="M39.4436 33.3172L39.7603 34.1685H40.7852L39.956 34.6947L40.2728 35.5461L39.4436 35.0199L38.6144 35.5461L38.9311 34.6947L38.1019 34.1685H39.1268L39.4436 33.3172Z" fill="white"/>
<defs>
<linearGradient id="paint0_linear" x1="84.214" y1="85.974" x2="4.8083" y2="-26.4119" gradientUnits="userSpaceOnUse">
<stop offset="0.9999" stop-color="#800080"/>
<stop offset="1" stop-color="white" stop-opacity="0"/>
</linearGradient>
<linearGradient id="paint1_linear" x1="15.6871" y1="6.01286" x2="56.6876" y2="70.3575" gradientUnits="userSpaceOnUse">
<stop stop-color="#1DD3B0"/>
<stop offset="1" stop-color="white" stop-opacity="0"/>
</linearGradient>
<linearGradient id="paint2_linear" x1="77.8263" y1="78.7191" x2="9.76427" y2="-17.6116" gradientUnits="userSpaceOnUse">
<stop offset="0.9999" stop-color="white"/>
<stop offset="1" stop-color="white" stop-opacity="0"/>
</linearGradient>
<linearGradient id="paint3_linear" x1="71.4385" y1="71.3657" x2="14.7202" y2="-8.9099" gradientUnits="userSpaceOnUse">
<stop offset="0.47588" stop-color="#800080"/>
<stop offset="1" stop-color="white" stop-opacity="0"/>
</linearGradient>
<linearGradient id="paint4_linear" x1="24.4561" y1="13.4265" x2="53.4402" y2="62.8825" gradientUnits="userSpaceOnUse">
<stop stop-color="#1DD3B0"/>
<stop offset="1" stop-color="white" stop-opacity="0"/>
</linearGradient>
<linearGradient id="paint5_linear" x1="29.23" y1="21.1929" x2="48.349" y2="52.7997" gradientUnits="userSpaceOnUse">
<stop stop-color="#1DD3B0"/>
<stop offset="1" stop-color="white" stop-opacity="0"/>
</linearGradient>
<linearGradient id="paint6_linear" x1="35.6628" y1="29.67" x2="43.5292" y2="42.2147" gradientUnits="userSpaceOnUse">
<stop stop-color="#1DD3B0"/>
<stop offset="1" stop-color="white" stop-opacity="0"/>
</linearGradient>
</defs>
</svg>
